<?xml version="1.0" encoding="UTF-8" standalone="no"?>
<!-- Created with Inkscape (http://www.inkscape.org/) -->

<svg
   xmlns:dc="http://purl.org/dc/elements/1.1/"
   xmlns:cc="http://creativecommons.org/ns#"
   xmlns:rdf="http://www.w3.org/1999/02/22-rdf-syntax-ns#"
   xmlns:svg="http://www.w3.org/2000/svg"
   xmlns="http://www.w3.org/2000/svg"
   xmlns:sodipodi="http://sodipodi.sourceforge.net/DTD/sodipodi-0.dtd"
   xmlns:inkscape="http://www.inkscape.org/namespaces/inkscape"
   version="1.1"
   width="404.125"
   height="421.59375"
   id="svg2816"
   xml:space="preserve"
   inkscape:version="0.48.4 r9939"
   sodipodi:docname="World_primary_energy_consumption_in_quadrillion_Btu_by_region.svg"><metadata
     id="metadata232"><rdf:RDF><cc:Work
         rdf:about=""><dc:format>image/svg+xml</dc:format><dc:type
           rdf:resource="http://purl.org/dc/dcmitype/StillImage" /><dc:title></dc:title></cc:Work></rdf:RDF></metadata><sodipodi:namedview
     pagecolor="#ffffff"
     bordercolor="#666666"
     borderopacity="1"
     objecttolerance="10"
     gridtolerance="10"
     guidetolerance="10"
     inkscape:pageopacity="0"
     inkscape:pageshadow="2"
     inkscape:window-width="1440"
     inkscape:window-height="838"
     id="namedview230"
     showgrid="false"
     inkscape:zoom="1.472982"
     inkscape:cx="219.84973"
     inkscape:cy="210.79688"
     inkscape:window-x="-8"
     inkscape:window-y="-8"
     inkscape:window-maximized="1"
     inkscape:current-layer="svg2816" /><defs
     id="defs2820"><clipPath
       id="clipPath2844"><path
         d="m 84.96,502.92 177.36,0 0,289.68 -177.36,0 0,-289.68 z"
         id="path2846" /></clipPath><clipPath
       id="clipPath2854"><path
         d="m 84.96,502.92 177.36,0 0,289.68 -177.36,0 0,-289.68 z"
         id="path2856" /></clipPath><clipPath
       id="clipPath2864"><path
         d="m 84.96,502.92 177.36,0 0,289.68 -177.36,0 0,-289.68 z"
         id="path2866" /></clipPath><clipPath
       id="clipPath2874"><path
         d="m 84.96,502.92 177.36,0 0,289.68 -177.36,0 0,-289.68 z"
         id="path2876" /></clipPath><clipPath
       id="clipPath2884"><path
         d="m 84.96,502.92 177.36,0 0,289.68 -177.36,0 0,-289.68 z"
         id="path2886" /></clipPath><clipPath
       id="clipPath2894"><path
         d="m 84.96,502.92 177.36,0 0,289.68 -177.36,0 0,-289.68 z"
         id="path2896" /></clipPath><clipPath
       id="clipPath2904"><path
         d="m 84.96,502.92 177.36,0 0,289.68 -177.36,0 0,-289.68 z"
         id="path2906" /></clipPath><clipPath
       id="clipPath2914"><path
         d="m 84.96,502.92 177.36,0 0,289.68 -177.36,0 0,-289.68 z"
         id="path2916" /></clipPath><clipPath
       id="clipPath2924"><path
         d="m 36,469.08 322.44,0 0,336.84 -322.44,0 0,-336.84 z"
         id="path2926" /></clipPath><clipPath
       id="clipPath2936"><path
         d="m 36,469.08 322.44,0 0,336.84 -322.44,0 0,-336.84 z"
         id="path2938" /></clipPath><clipPath
       id="clipPath2948"><path
         d="m 36,469.08 322.44,0 0,336.84 -322.44,0 0,-336.84 z"
         id="path2950" /></clipPath><clipPath
       id="clipPath2960"><path
         d="m 36,469.08 322.44,0 0,336.84 -322.44,0 0,-336.84 z"
         id="path2962" /></clipPath><clipPath
       id="clipPath2972"><path
         d="m 36,469.08 322.44,0 0,336.84 -322.44,0 0,-336.84 z"
         id="path2974" /></clipPath><clipPath
       id="clipPath2984"><path
         d="m 36,469.08 322.44,0 0,336.84 -322.44,0 0,-336.84 z"
         id="path2986" /></clipPath><clipPath
       id="clipPath2996"><path
         d="m 36,469.08 322.44,0 0,336.84 -322.44,0 0,-336.84 z"
         id="path2998" /></clipPath><clipPath
       id="clipPath3008"><path
         d="m 36,469.08 322.44,0 0,336.84 -322.44,0 0,-336.84 z"
         id="path3010" /></clipPath><clipPath
       id="clipPath3020"><path
         d="m 36,469.08 322.44,0 0,336.84 -322.44,0 0,-336.84 z"
         id="path3022" /></clipPath><clipPath
       id="clipPath3032"><path
         d="m 36,469.08 322.44,0 0,336.84 -322.44,0 0,-336.84 z"
         id="path3034" /></clipPath><clipPath
       id="clipPath3044"><path
         d="m 36,469.08 322.44,0 0,336.84 -322.44,0 0,-336.84 z"
         id="path3046" /></clipPath><clipPath
       id="clipPath3056"><path
         d="m 36,469.08 322.44,0 0,336.84 -322.44,0 0,-336.84 z"
         id="path3058" /></clipPath><clipPath
       id="clipPath3068"><path
         d="m 36,469.08 322.44,0 0,336.84 -322.44,0 0,-336.84 z"
         id="path3070" /></clipPath><clipPath
       id="clipPath3080"><path
         d="m 36,469.08 322.44,0 0,336.84 -322.44,0 0,-336.84 z"
         id="path3082" /></clipPath><clipPath
       id="clipPath3092"><path
         d="M -1.02e-7,454.92 595.32,454.92 l 0,351 L -1.02e-7,805.92 l 0,-351 z"
         id="path3094" /></clipPath><clipPath
       id="clipPath3102"><path
         d="m 36,468.96 322.68,0 0,336.96 -322.68,0 0,-336.96 z"
         id="path3104" /></clipPath><clipPath
       id="clipPath3114"><path
         d="m 36,468.96 322.68,0 0,336.96 -322.68,0 0,-336.96 z"
         id="path3116" /></clipPath><clipPath
       id="clipPath3122"><path
         d="m 36,468.96 322.68,0 0,336.96 -322.68,0 0,-336.96 z"
         id="path3124" /></clipPath><clipPath
       id="clipPath3134"><path
         d="m 36,468.96 322.68,0 0,336.96 -322.68,0 0,-336.96 z"
         id="path3136" /></clipPath><clipPath
       id="clipPath3142"><path
         d="m 36,468.96 322.68,0 0,336.96 -322.68,0 0,-336.96 z"
         id="path3144" /></clipPath><clipPath
       id="clipPath3154"><path
         d="m 36,468.96 322.68,0 0,336.96 -322.68,0 0,-336.96 z"
         id="path3156" /></clipPath><clipPath
       id="clipPath3162"><path
         d="m 36,468.96 322.68,0 0,336.96 -322.68,0 0,-336.96 z"
         id="path3164" /></clipPath><clipPath
       id="clipPath3174"><path
         d="m 36,468.96 322.68,0 0,336.96 -322.68,0 0,-336.96 z"
         id="path3176" /></clipPath><clipPath
       id="clipPath3182"><path
         d="m 36,468.96 322.68,0 0,336.96 -322.68,0 0,-336.96 z"
         id="path3184" /></clipPath><clipPath
       id="clipPath3194"><path
         d="m 36,468.96 322.68,0 0,336.96 -322.68,0 0,-336.96 z"
         id="path3196" /></clipPath><clipPath
       id="clipPath3202"><path
         d="m 36,468.96 322.68,0 0,336.96 -322.68,0 0,-336.96 z"
         id="path3204" /></clipPath><clipPath
       id="clipPath3214"><path
         d="m 36,468.96 322.68,0 0,336.96 -322.68,0 0,-336.96 z"
         id="path3216" /></clipPath><clipPath
       id="clipPath3222"><path
         d="m 36,468.96 322.68,0 0,336.96 -322.68,0 0,-336.96 z"
         id="path3224" /></clipPath><clipPath
       id="clipPath3234"><path
         d="m 36,468.96 322.68,0 0,336.96 -322.68,0 0,-336.96 z"
         id="path3236" /></clipPath><clipPath
       id="clipPath3242"><path
         d="m 36,468.96 322.68,0 0,336.96 -322.68,0 0,-336.96 z"
         id="path3244" /></clipPath><clipPath
       id="clipPath3254"><path
         d="m 36,468.96 322.68,0 0,336.96 -322.68,0 0,-336.96 z"
         id="path3256" /></clipPath><clipPath
       id="clipPath3262"><path
         d="m 36,468.96 322.68,0 0,336.96 -322.68,0 0,-336.96 z"
         id="path3264" /></clipPath><clipPath
       id="clipPath3274"><path
         d="m 36,468.96 322.68,0 0,336.96 -322.68,0 0,-336.96 z"
         id="path3276" /></clipPath></defs><path
     inkscape:connector-curvature="0"
     style="fill:#ffffff;fill-opacity:1;fill-rule:evenodd;stroke:none"
     id="path2830"
     d="m 67.81875,397.85 220.8,0 0,-361.2 -220.8,0 0,361.2 z" /><path
     inkscape:connector-curvature="0"
     style="fill:none;stroke:#868686;stroke-width:0.90000004;stroke-linecap:butt;stroke-linejoin:round;stroke-miterlimit:10;stroke-opacity:1;stroke-dasharray:none"
     id="path2832"
     d="m 67.81875,397.85 0,-361.2" /><path
     inkscape:connector-curvature="0"
     style="fill:none;stroke:#868686;stroke-width:0.90000004;stroke-linecap:butt;stroke-linejoin:round;stroke-miterlimit:10;stroke-opacity:1;stroke-dasharray:none"
     id="path2834"
     d="m 63.76875,397.85 4.05,0 m -4.05,-60.15 4.05,0 m -4.05,-60.3 4.05,0 m -4.05,-60.15 4.05,0 m -4.05,-60.15 4.05,0 m -4.05,-60.15 4.05,0 m -4.05,-60.3 4.05,0" /><path
     inkscape:connector-curvature="0"
     style="fill:none;stroke:#868686;stroke-width:0.90000004;stroke-linecap:butt;stroke-linejoin:round;stroke-miterlimit:10;stroke-opacity:1;stroke-dasharray:none"
     id="path2836"
     d="m 67.81875,397.85 220.8,0" /><path
     inkscape:connector-curvature="0"
     style="fill:none;stroke:#868686;stroke-width:0.90000004;stroke-linecap:butt;stroke-linejoin:round;stroke-miterlimit:10;stroke-opacity:1;stroke-dasharray:none"
     id="path2838"
     d="m 67.81875,397.85 0,3.9 m 36.75,-3.9 0,3.9 m 36.75,-3.9 0,3.9 m 36.9,-3.9 0,3.9 m 36.75,-3.9 0,3.9 m 36.75,-3.9 0,3.9 m 36.9,-3.9 0,3.9" /><g
     id="g2840"
     transform="matrix(1.25,0,0,-1.25,-38.53125,1027.4)"><g
       id="g2842"
       clip-path="url(#clipPath2844)"><path
         inkscape:connector-curvature="0"
         style="fill:none;stroke:#ce8e8d;stroke-width:2.16000009;stroke-linecap:round;stroke-linejoin:round;stroke-miterlimit:10;stroke-opacity:1;stroke-dasharray:none"
         id="path2848"
         d="m 85.08,639.96 5.88,-1.08 5.88,-0.12 5.88,1.8 5.88,7.44 5.88,3.48 5.88,3.72 5.88,4.68 5.88,6.12 5.88,2.76 5.88,1.56 5.88,0.48 6,0 5.88,-2.4 5.88,6.24 5.88,3.84 5.88,4.32 5.88,3.48 5.88,1.32 5.88,3.48 5.88,5.16 5.88,1.08 5.88,4.8 5.88,6.6 5.88,9.12 5.88,6.96 5.88,5.28 5.88,6.12 5.88,3.72 5.88,-1.44 6,11.04" /></g></g><g
     id="g2850"
     transform="matrix(1.25,0,0,-1.25,-38.53125,1027.4)"><g
       id="g2852"
       clip-path="url(#clipPath2854)"><path
         inkscape:connector-curvature="0"
         style="fill:none;stroke:#416fa6;stroke-width:2.16000009;stroke-linecap:round;stroke-linejoin:round;stroke-miterlimit:10;stroke-opacity:1;stroke-dasharray:none"
         id="path2858"
         d="m 85.08,527.16 5.88,0.48 5.88,0.36 5.88,0.72 5.88,2.16 5.88,0.72 5.88,1.2 5.88,1.44 5.88,2.28 5.88,1.2 5.88,1.32 5.88,1.68 6,1.2 5.88,0.6 5.88,3.96 5.88,2.16 5.88,1.68 5.88,2.88 5.88,0.48 5.88,1.32 5.88,1.92 5.88,1.44 5.88,2.88 5.88,3.84 5.88,4.92 5.88,5.28 5.88,4.32 5.88,3.84 5.88,3 5.88,5.16 6,5.28" /></g></g><g
     id="g2860"
     transform="matrix(1.25,0,0,-1.25,-38.53125,1027.4)"><g
       id="g2862"
       clip-path="url(#clipPath2864)"><path
         inkscape:connector-curvature="0"
         style="fill:none;stroke:#a8423f;stroke-width:2.16000009;stroke-linecap:round;stroke-linejoin:round;stroke-miterlimit:10;stroke-opacity:1;stroke-dasharray:none"
         id="path2868"
         d="m 85.08,547.8 5.88,-0.84 5.88,-1.56 5.88,-0.24 5.88,2.16 5.88,0.12 5.88,0.12 5.88,1.44 5.88,2.04 5.88,1.2 5.88,-0.36 5.88,0.24 6,0.84 5.88,0.96 5.88,0.96 5.88,1.08 5.88,1.68 5.88,0.36 5.88,0.24 5.88,1.08 5.88,1.44 5.88,-1.56 5.88,0.84 5.88,0.36 5.88,1.44 5.88,0.24 5.88,-0.24 5.88,0.96 5.88,-1.32 5.88,-2.64 6,1.8" /></g></g><g
     id="g2870"
     transform="matrix(1.25,0,0,-1.25,-38.53125,1027.4)"><g
       id="g2872"
       clip-path="url(#clipPath2874)"><path
         inkscape:connector-curvature="0"
         style="fill:none;stroke:#6e548d;stroke-width:2.16000009;stroke-linecap:round;stroke-linejoin:round;stroke-miterlimit:10;stroke-opacity:1;stroke-dasharray:none"
         id="path2878"
         d="m 85.08,538.2 5.88,-1.08 5.88,-0.36 5.88,0.24 5.88,0.72 5.88,1.08 5.88,0.72 5.88,0.72 5.88,0.24 5.88,0.24 5.88,-0.36 5.88,-0.12 6,-0.6 5.88,0.12 5.88,0 5.88,0.84 5.88,1.32 5.88,0 5.88,0.36 5.88,0 5.88,0.6 5.88,0.6 5.88,-0.12 5.88,0.84 5.88,0.84 5.88,-0.12 5.88,0.36 5.88,0.12 5.88,-0.48 5.88,-2.16 6,1.32" /></g></g><g
     id="g2880"
     transform="matrix(1.25,0,0,-1.25,-38.53125,1027.4)"><g
       id="g2882"
       clip-path="url(#clipPath2884)"><path
         inkscape:connector-curvature="0"
         style="fill:none;stroke:#3d96ae;stroke-width:2.16000009;stroke-linecap:round;stroke-linejoin:round;stroke-miterlimit:10;stroke-opacity:1;stroke-dasharray:none"
         id="path2888"
         d="m 85.08,526.2 5.88,0.24 5.88,0.96 5.88,0.6 5.88,1.44 5.88,1.08 5.88,0.84 5.88,0.6 5.88,0.96 5.88,-0.36 5.88,0.48 5.88,-1.68 6,-2.16 5.88,-2.64 5.88,-1.68 5.88,-0.84 5.88,-1.2 5.88,-1.08 5.88,-0.24 5.88,0.48 5.88,0.48 5.88,-0.12 5.88,0.72 5.88,0.6 5.88,0.6 5.88,0.12 5.88,-0.24 5.88,0.72 5.88,0.48 5.88,-2.28 6,1.2" /></g></g><g
     id="g2890"
     transform="matrix(1.25,0,0,-1.25,-38.53125,1027.4)"><g
       id="g2892"
       clip-path="url(#clipPath2894)"><path
         inkscape:connector-curvature="0"
         style="fill:none;stroke:#da8137;stroke-width:2.16000009;stroke-linecap:round;stroke-linejoin:round;stroke-miterlimit:10;stroke-opacity:1;stroke-dasharray:none"
         id="path2898"
         d="m 85.08,506.52 5.88,0.12 5.88,0.12 5.88,0.36 5.88,0.36 5.88,0.36 5.88,0.24 5.88,0.24 5.88,0.36 5.88,0.24 5.88,0.12 5.88,0.12 6,0.36 5.88,-0.36 5.88,1.08 5.88,0.12 5.88,0.36 5.88,0.48 5.88,0.36 5.88,0.12 5.88,0.36 5.88,0.24 5.88,0.6 5.88,0.36 5.88,0.48 5.88,0.96 5.88,0.48 5.88,0 5.88,1.08 5.88,0.6 6,0.72" /></g></g><g
     id="g2900"
     transform="matrix(1.25,0,0,-1.25,-38.53125,1027.4)"><g
       id="g2902"
       clip-path="url(#clipPath2904)"><path
         inkscape:connector-curvature="0"
         style="fill:none;stroke:#86a44a;stroke-width:2.16000009;stroke-linecap:round;stroke-linejoin:round;stroke-miterlimit:10;stroke-opacity:1;stroke-dasharray:none"
         id="path2908"
         d="m 85.08,509.28 5.88,-0.12 5.88,0 5.88,0 5.88,0.36 5.88,0.12 5.88,0.36 5.88,0.12 5.88,0.12 5.88,0.24 5.88,0.12 5.88,0.36 6,0.12 5.88,-0.72 5.88,1.44 5.88,0.36 5.88,0.36 5.88,0.48 5.88,0.36 5.88,0.12 5.88,0.24 5.88,0.12 5.88,0 5.88,0.24 5.88,0.36 5.88,0.36 5.88,0.6 5.88,0.12 5.88,0.48 5.88,-0.12 6,0.72" /></g></g><g
     id="g2910"
     transform="matrix(1.25,0,0,-1.25,-38.53125,1027.4)"><g
       id="g2912"
       clip-path="url(#clipPath2914)"><path
         inkscape:connector-curvature="0"
         style="fill:none;stroke:#8ea5cb;stroke-width:2.16000009;stroke-linecap:round;stroke-linejoin:round;stroke-miterlimit:10;stroke-opacity:1;stroke-dasharray:none"
         id="path2918"
         d="m 85.08,507 5.88,0 5.88,0.36 5.88,0.12 5.88,0.24 5.88,0 5.88,0.12 5.88,0.12 5.88,0.24 5.88,-0.12 5.88,0.12 5.88,0.24 6,0 5.88,-0.24 5.88,0.48 5.88,0.12 5.88,0.12 5.88,0.24 5.88,0 5.88,0.12 5.88,0.24 5.88,0.24 5.88,0 5.88,0.36 5.88,0.24 5.88,0.24 5.88,0.12 5.88,0.12 5.88,0.6 5.88,-0.12 6,0.24" /></g></g><g
     id="g2920"
     transform="matrix(1.25,0,0,-1.25,-38.53125,1027.4)"><g
       id="g2922"
       clip-path="url(#clipPath2924)"><text
   id="text2928"
   transform="matrix(1,0,0,-1,70.728,500.81)"><tspan
     style="font-size:9.96000004px;font-variant:normal;font-weight:normal;writing-mode:lr-tb;fill:#000000;fill-opacity:1;fill-rule:nonzero;stroke:none;font-family:Calibri;-inkscape-font-specification:Calibri"
     id="tspan2930"
     y="0"
     x="0">0</tspan></text>

</g></g><g
     id="g2932"
     transform="matrix(1.25,0,0,-1.25,-38.53125,1027.4)"><g
       id="g2934"
       clip-path="url(#clipPath2936)"><text
   id="text2940"
   transform="matrix(1,0,0,-1,60.6,548.95)"><tspan
     style="font-size:9.96000004px;font-variant:normal;font-weight:normal;writing-mode:lr-tb;fill:#000000;fill-opacity:1;fill-rule:nonzero;stroke:none;font-family:Calibri;-inkscape-font-specification:Calibri"
     id="tspan2942"
     y="0"
     x="0 5.0497198 10.18908">100</tspan></text>

</g></g><g
     id="g2944"
     transform="matrix(1.25,0,0,-1.25,-38.53125,1027.4)"><g
       id="g2946"
       clip-path="url(#clipPath2948)"><text
   id="text2952"
   transform="matrix(1,0,0,-1,60.6,597.1)"><tspan
     style="font-size:9.96000004px;font-variant:normal;font-weight:normal;writing-mode:lr-tb;fill:#000000;fill-opacity:1;fill-rule:nonzero;stroke:none;font-family:Calibri;-inkscape-font-specification:Calibri"
     id="tspan2954"
     y="0"
     x="0 5.0497198 10.18908">200</tspan></text>

</g></g><g
     id="g2956"
     transform="matrix(1.25,0,0,-1.25,-38.53125,1027.4)"><g
       id="g2958"
       clip-path="url(#clipPath2960)"><text
   id="text2964"
   transform="matrix(1,0,0,-1,60.6,645.26)"><tspan
     style="font-size:9.96000004px;font-variant:normal;font-weight:normal;writing-mode:lr-tb;fill:#000000;fill-opacity:1;fill-rule:nonzero;stroke:none;font-family:Calibri;-inkscape-font-specification:Calibri"
     id="tspan2966"
     y="0"
     x="0 5.0497198 10.18908">300</tspan></text>

</g></g><g
     id="g2968"
     transform="matrix(1.25,0,0,-1.25,-38.53125,1027.4)"><g
       id="g2970"
       clip-path="url(#clipPath2972)"><text
   id="text2976"
   transform="matrix(1,0,0,-1,60.6,693.41)"><tspan
     style="font-size:9.96000004px;font-variant:normal;font-weight:normal;writing-mode:lr-tb;fill:#000000;fill-opacity:1;fill-rule:nonzero;stroke:none;font-family:Calibri;-inkscape-font-specification:Calibri"
     id="tspan2978"
     y="0"
     x="0 5.0497198 10.18908">400</tspan></text>

</g></g><g
     id="g2980"
     transform="matrix(1.25,0,0,-1.25,-38.53125,1027.4)"><g
       id="g2982"
       clip-path="url(#clipPath2984)"><text
   id="text2988"
   transform="matrix(1,0,0,-1,60.6,741.58)"><tspan
     style="font-size:9.96000004px;font-variant:normal;font-weight:normal;writing-mode:lr-tb;fill:#000000;fill-opacity:1;fill-rule:nonzero;stroke:none;font-family:Calibri;-inkscape-font-specification:Calibri"
     id="tspan2990"
     y="0"
     x="0 5.0497198 10.18908">500</tspan></text>

</g></g><g
     id="g2992"
     transform="matrix(1.25,0,0,-1.25,-38.53125,1027.4)"><g
       id="g2994"
       clip-path="url(#clipPath2996)"><text
   id="text3000"
   transform="matrix(1,0,0,-1,60.6,789.72)"><tspan
     style="font-size:9.96000004px;font-variant:normal;font-weight:normal;writing-mode:lr-tb;fill:#000000;fill-opacity:1;fill-rule:nonzero;stroke:none;font-family:Calibri;-inkscape-font-specification:Calibri"
     id="tspan3002"
     y="0"
     x="0 5.0497198 10.18908">600</tspan></text>

</g></g><g
     id="g3004"
     transform="matrix(1.25,0,0,-1.25,-38.53125,1027.4)"><g
       id="g3006"
       clip-path="url(#clipPath3008)"><text
   id="text3012"
   transform="matrix(1,0,0,-1,74.928,487.8)"><tspan
     style="font-size:9.96000004px;font-variant:normal;font-weight:normal;writing-mode:lr-tb;fill:#000000;fill-opacity:1;fill-rule:nonzero;stroke:none;font-family:Calibri;-inkscape-font-specification:Calibri"
     id="tspan3014"
     y="0"
     x="0 5.0497198 10.18908 15.2388">1980</tspan></text>

</g></g><g
     id="g3016"
     transform="matrix(1.25,0,0,-1.25,-38.53125,1027.4)"><g
       id="g3018"
       clip-path="url(#clipPath3020)"><text
   id="text3024"
   transform="matrix(1,0,0,-1,104.38,487.8)"><tspan
     style="font-size:9.96000004px;font-variant:normal;font-weight:normal;writing-mode:lr-tb;fill:#000000;fill-opacity:1;fill-rule:nonzero;stroke:none;font-family:Calibri;-inkscape-font-specification:Calibri"
     id="tspan3026"
     y="0"
     x="0 5.0497198 10.18908 15.2388">1985</tspan></text>

</g></g><g
     id="g3028"
     transform="matrix(1.25,0,0,-1.25,-38.53125,1027.4)"><g
       id="g3030"
       clip-path="url(#clipPath3032)"><text
   id="text3036"
   transform="matrix(1,0,0,-1,133.82,487.8)"><tspan
     style="font-size:9.96000004px;font-variant:normal;font-weight:normal;writing-mode:lr-tb;fill:#000000;fill-opacity:1;fill-rule:nonzero;stroke:none;font-family:Calibri;-inkscape-font-specification:Calibri"
     id="tspan3038"
     y="0"
     x="0 5.0497198 10.18908 15.2388">1990</tspan></text>

</g></g><g
     id="g3040"
     transform="matrix(1.25,0,0,-1.25,-38.53125,1027.4)"><g
       id="g3042"
       clip-path="url(#clipPath3044)"><text
   id="text3048"
   transform="matrix(1,0,0,-1,163.25,487.8)"><tspan
     style="font-size:9.96000004px;font-variant:normal;font-weight:normal;writing-mode:lr-tb;fill:#000000;fill-opacity:1;fill-rule:nonzero;stroke:none;font-family:Calibri;-inkscape-font-specification:Calibri"
     id="tspan3050"
     y="0"
     x="0 5.0497198 10.18908 15.2388">1995</tspan></text>

</g></g><g
     id="g3052"
     transform="matrix(1.25,0,0,-1.25,-38.53125,1027.4)"><g
       id="g3054"
       clip-path="url(#clipPath3056)"><text
   id="text3060"
   transform="matrix(1,0,0,-1,192.7,487.8)"><tspan
     style="font-size:9.96000004px;font-variant:normal;font-weight:normal;writing-mode:lr-tb;fill:#000000;fill-opacity:1;fill-rule:nonzero;stroke:none;font-family:Calibri;-inkscape-font-specification:Calibri"
     id="tspan3062"
     y="0"
     x="0 5.0497198 10.18908 15.2388">2000</tspan></text>

</g></g><g
     id="g3064"
     transform="matrix(1.25,0,0,-1.25,-38.53125,1027.4)"><g
       id="g3066"
       clip-path="url(#clipPath3068)"><text
   id="text3072"
   transform="matrix(1,0,0,-1,222.14,487.8)"><tspan
     style="font-size:9.96000004px;font-variant:normal;font-weight:normal;writing-mode:lr-tb;fill:#000000;fill-opacity:1;fill-rule:nonzero;stroke:none;font-family:Calibri;-inkscape-font-specification:Calibri"
     id="tspan3074"
     y="0"
     x="0 5.0497198 10.18908 15.2388">2005</tspan></text>

</g></g><g
     id="g3076"
     transform="matrix(1.25,0,0,-1.25,-38.53125,1027.4)"><g
       id="g3078"
       clip-path="url(#clipPath3080)"><text
   id="text3084"
   transform="matrix(1,0,0,-1,251.57,487.8)"><tspan
     style="font-size:9.96000004px;font-variant:normal;font-weight:normal;writing-mode:lr-tb;fill:#000000;fill-opacity:1;fill-rule:nonzero;stroke:none;font-family:Calibri;-inkscape-font-specification:Calibri"
     id="tspan3086"
     y="0"
     x="0 5.0497198 10.18908 15.2388">2010</tspan></text>

</g></g><g
     id="g3098"
     transform="matrix(1.25,0,0,-1.25,-38.53125,1027.4)"><g
       id="g3100"
       clip-path="url(#clipPath3102)"><text
   id="text3106"
   transform="matrix(1,0,0,-1,265.49,599.54)"><tspan
     style="font-size:11.03999996px;font-variant:normal;font-weight:normal;writing-mode:lr-tb;fill:#000000;fill-opacity:1;fill-rule:nonzero;stroke:none;font-family:Calibri;-inkscape-font-specification:Calibri"
     id="tspan3108"
     y="0"
     x="0 6.3921599 10.7088 13.20384 18.492001 20.98704 28.54944 30.94512 38.253601 42.923519 48.454559 53.742722 59.49456 62.03376">Asia &amp; Oceania</tspan></text>

</g></g><g
     id="g3110"
     transform="matrix(1.25,0,0,-1.25,-44.53125,1007.4)"><g
       id="g3112"
       clip-path="url(#clipPath3114)" /></g><g
     id="g3118"
     transform="matrix(1.25,0,0,-1.25,-38.53125,1027.4)"><g
       id="g3120"
       clip-path="url(#clipPath3122)"><text
   id="text3126"
   transform="matrix(1,0,0,-1,266.5,560.69)"><tspan
     style="font-size:11.03999996px;font-variant:normal;font-weight:normal;writing-mode:lr-tb;fill:#000000;fill-opacity:1;fill-rule:nonzero;stroke:none;font-family:Calibri;-inkscape-font-specification:Calibri"
     id="tspan3128"
     y="0"
     x="0 7.0766401 12.94992 16.802879 20.50128 26.297279 28.670879 35.063042 43.928162 49.426079 53.279041 55.818241 60.488159">North America</tspan></text>

</g></g><g
     id="g3130"
     transform="matrix(1.25,0,0,-1.25,-44.53125,1007.4)"><g
       id="g3132"
       clip-path="url(#clipPath3134)" /></g><g
     id="g3138"
     transform="matrix(1.25,0,0,-1.25,-38.53125,1027.4)"><g
       id="g3140"
       clip-path="url(#clipPath3142)"><text
   id="text3146"
   transform="matrix(1,0,0,-1,266.26,544.06)"><tspan
     style="font-size:11.03999996px;font-variant:normal;font-weight:normal;writing-mode:lr-tb;fill:#000000;fill-opacity:1;fill-rule:nonzero;stroke:none;font-family:Calibri;-inkscape-font-specification:Calibri"
     id="tspan3148"
     y="0"
     x="0 5.3875198 11.18352 15.00336 20.87664 26.639521">Europe</tspan></text>

</g></g><g
     id="g3150"
     transform="matrix(1.25,0,0,-1.25,-44.53125,1007.4)"><g
       id="g3152"
       clip-path="url(#clipPath3154)" /></g><g
     id="g3158"
     transform="matrix(1.25,0,0,-1.25,-38.53125,1027.4)"><g
       id="g3160"
       clip-path="url(#clipPath3162)"><text
   id="text3166"
   transform="matrix(1,0,0,-1,265.75,531.02)"><tspan
     style="font-size:11.03999996px;font-variant:normal;font-weight:normal;writing-mode:lr-tb;fill:#000000;fill-opacity:1;fill-rule:nonzero;stroke:none;font-family:Calibri;-inkscape-font-specification:Calibri"
     id="tspan3168"
     y="0"
     x="0 5.3875198 11.18352 15.00336 20.291519 24.60816 27.14736">Eurasia</tspan></text>

</g></g><g
     id="g3170"
     transform="matrix(1.25,0,0,-1.25,-44.53125,1007.4)"><g
       id="g3172"
       clip-path="url(#clipPath3174)" /></g><g
     id="g3178"
     transform="matrix(1.25,0,0,-1.25,-38.53125,1027.4)"><g
       id="g3180"
       clip-path="url(#clipPath3182)"><text
   id="text3186"
   transform="matrix(1,0,0,-1,265.51,502.94)"><tspan
     style="font-size:11.03999996px;font-variant:normal;font-weight:normal;writing-mode:lr-tb;fill:#000000;fill-opacity:1;fill-rule:nonzero;stroke:none;font-family:Calibri;-inkscape-font-specification:Calibri"
     id="tspan3188"
     y="0"
     x="0 6.3921599 9.7152004 13.56816 16.107361 20.777281">Africa</tspan></text>

</g></g><g
     id="g3190"
     transform="matrix(1.25,0,0,-1.25,-44.53125,1007.4)"><g
       id="g3192"
       clip-path="url(#clipPath3194)" /></g><g
     id="g3198"
     transform="matrix(1.25,0,0,-1.25,-38.53125,1027.4)"><g
       id="g3200"
       clip-path="url(#clipPath3202)"><text
   id="text3206"
   transform="matrix(1,0,0,-1,265.3,512.52)"><tspan
     style="font-size:11.03999996px;font-variant:normal;font-weight:normal;writing-mode:lr-tb;fill:#000000;fill-opacity:1;fill-rule:nonzero;stroke:none;font-family:Calibri;-inkscape-font-specification:Calibri"
     id="tspan3208"
     y="0"
     x="0 5.8800001">C.</tspan></text>

</g></g><g
     id="g3210"
     transform="matrix(1.25,0,0,-1.25,-44.53125,1007.4)"><g
       id="g3212"
       clip-path="url(#clipPath3214)" /></g><g
     id="g3218"
     transform="matrix(1.25,0,0,-1.25,-38.53125,1027.4)"><g
       id="g3220"
       clip-path="url(#clipPath3222)"><text
   id="text3226"
   transform="matrix(1,0,0,-1,276.46,512.52)"><tspan
     style="font-size:11.03999996px;font-variant:normal;font-weight:normal;writing-mode:lr-tb;fill:#000000;fill-opacity:1;fill-rule:nonzero;stroke:none;font-family:Calibri;-inkscape-font-specification:Calibri"
     id="tspan3228"
     y="0"
     x="0 7.5292802 9.9580803 15.02544 17.763359 20.2584 26.65056 35.515678 41.013599 44.866562 47.405762 52.07568">&amp; S. America</tspan></text>

</g></g><g
     id="g3230"
     transform="matrix(1.25,0,0,-1.25,-44.53125,1007.4)"><g
       id="g3232"
       clip-path="url(#clipPath3234)" /></g><g
     id="g3238"
     transform="matrix(1.25,0,0,-1.25,-38.53125,1027.4)"><g
       id="g3240"
       clip-path="url(#clipPath3242)"><text
   id="text3246"
   transform="matrix(1,0,0,-1,265.75,520.85)"><tspan
     style="font-size:11.03999996px;font-variant:normal;font-weight:normal;writing-mode:lr-tb;fill:#000000;fill-opacity:1;fill-rule:nonzero;stroke:none;font-family:Calibri;-inkscape-font-specification:Calibri"
     id="tspan3248"
     y="0"
     x="0 9.4723196 12.01152 17.752319 23.5152 26.054399 31.55232 33.959042 39.346561 44.63472 48.951359">Middle East</tspan></text>

</g></g><g
     id="g3250"
     transform="matrix(1.25,0,0,-1.25,-44.53125,1007.4)"><g
       id="g3252"
       clip-path="url(#clipPath3254)" /></g><g
     id="g3258"
     transform="matrix(1.25,0,0,-1.25,-38.53125,1027.4)"><g
       id="g3260"
       clip-path="url(#clipPath3262)"><text
   id="text3266"
   transform="matrix(1,0,0,-1,268.75,753.38)"><tspan
     style="font-size:11.03999996px;font-variant:normal;font-weight:normal;writing-mode:lr-tb;fill:#000000;fill-opacity:1;fill-rule:nonzero;stroke:none;font-family:Calibri;-inkscape-font-specification:Calibri"
     id="tspan3268"
     y="0"
     x="0 9.8255997 15.70992 19.56288 22.102079">World</tspan></text>

</g></g><g
     id="g3270"
     transform="matrix(1.25,0,0,-1.25,-44.53125,1007.4)"><g
       id="g3272"
       clip-path="url(#clipPath3274)" /></g><text
     xml:space="preserve"
     style="font-size:40px;font-style:normal;font-weight:normal;line-height:125%;letter-spacing:0px;word-spacing:0px;fill:#000000;fill-opacity:1;stroke:none;font-family:Sans"
     x="-238.86804"
     y="21.371384"
     id="text3374"
     sodipodi:linespacing="125%"
     transform="matrix(0,-1,1,0,0,0)"><tspan
       sodipodi:role="line"
       id="tspan3376"
       x="-238.86804"
       y="21.371384"
       style="font-size:14px">10<tspan
   style="font-size:65.00091553%;baseline-shift:super"
   id="tspan3378">15</tspan> Btu</tspan></text>
<text
     xml:space="preserve"
     style="font-size:40px;font-style:normal;font-weight:normal;line-height:125%;letter-spacing:0px;word-spacing:0px;fill:#000000;fill-opacity:1;stroke:none;font-family:Sans"
     x="56.348282"
     y="21.045742"
     id="text3380"
     sodipodi:linespacing="125%"><tspan
       sodipodi:role="line"
       id="tspan3382"
       x="56.348282"
       y="21.045742"
       style="font-size:18px">Annual Energy Demand by Region</tspan></text>
</svg>